<?xml version="1.0" encoding="UTF-8"?>
<svg width="207px" height="63px" viewBox="0 0 207 63" version="1.1" xmlns="http://www.w3.org/2000/svg" xmlns:xlink="http://www.w3.org/1999/xlink">
    <!-- Generator: Sketch 49.1 (51147) - http://www.bohemiancoding.com/sketch -->
    <title>Artboard</title>
    <desc>Created with Sketch.</desc>
    <defs></defs>
    <g id="Artboard" stroke="none" stroke-width="1" fill="none" fill-rule="evenodd">
        <g id="logo" fill-rule="nonzero">
            <path d="M40.9715243,63 C30.4522613,63 0,54.5035211 0,44 C0,33.4964789 30.4522613,25 40.9715243,25 C51.4907873,25 60,33.4964789 60,44 C60,54.5035211 51.4907873,63 40.9715243,63" id="Shape" fill="#35783C"></path>
            <path d="M31.4235915,30.9344898 C24.7276453,26.863026 8.57859844,9.62497357 12.6486834,2.92675893 C16.7187684,-3.77145571 39.4652917,2.56558069 46.1612379,6.66987888 C52.8571842,10.7413427 55.0235197,19.4752892 50.9206115,26.1735039 C46.8505265,32.8717185 38.1195378,35.0059536 31.4235915,30.9344898" id="Shape" fill="#C6D420"></path>
            <path d="M25,27.8028071 C27.1523179,29.9588126 29.1721854,31.7554838 30.6953642,32.7256862 C37.2516556,37.0736306 45.7284768,34.989492 50,28.1621413 C47.0860927,26.185803 43.6754967,25 40,25 C36.589404,25.0359334 30.9602649,26.0420693 25,27.8028071" id="Shape" fill="#2D4838"></path>
            <path d="M85.9060403,15.7729592 C86.6107383,16.0382653 87.2147651,16.4030612 87.7516779,16.8673469 C88.2885906,17.3316327 88.6912752,17.8290816 89.0268456,18.3928571 C89.3624161,18.9566327 89.5973154,19.5535714 89.7651007,20.2168367 C89.9328859,20.8469388 90,21.5102041 90,22.1734694 C90,23.3341837 89.7651007,24.3954082 89.295302,25.3571429 C88.8255034,26.3188776 88.2214765,27.1479592 87.4161074,27.8443878 C86.6442953,28.5408163 85.704698,29.0714286 84.6308725,29.4362245 C83.557047,29.8010204 82.4161074,30 81.2080537,30 L72.0805369,30 C71.2751678,30 70.738255,29.8341837 70.4362416,29.502551 C70.1342282,29.1709184 70,28.6403061 70,27.877551 L70,6.15561224 C70,5.42602041 70.1342282,4.89540816 70.4362416,4.56377551 C70.738255,4.23214286 71.2751678,4.03316327 72.0805369,4.03316327 L80.7718121,4 C81.9127517,4 82.9865772,4.13265306 83.9932886,4.36479592 C85,4.59693878 85.8389262,4.99489796 86.5436242,5.5255102 C87.2483221,6.05612245 87.8187919,6.71938776 88.2214765,7.51530612 C88.6241611,8.31122449 88.8255034,9.30612245 88.8255034,10.4336735 C88.8255034,11.5280612 88.557047,12.5561224 87.9865772,13.4515306 C87.4161074,14.3469388 86.7114094,15.0433673 85.8724832,15.5076531 L85.8724832,15.7729592 L85.9060403,15.7729592 Z M74.5637584,14.0816327 L80.6375839,14.0816327 C80.9731544,14.0816327 81.3758389,14.0484694 81.7785235,13.9489796 C82.1812081,13.8494898 82.5838926,13.7168367 82.9194631,13.4846939 C83.2550336,13.252551 83.557047,12.9209184 83.7919463,12.5229592 C84.0268456,12.125 84.1275168,11.5943878 84.1275168,10.8979592 C84.1275168,10.002551 83.8255034,9.30612245 83.2550336,8.7755102 C82.6845638,8.24489796 81.8791946,8.0127551 80.8724832,8.0127551 L74.5973154,8.0127551 L74.5973154,14.0816327 L74.5637584,14.0816327 Z M85.2684564,21.875 C85.2684564,20.6811224 84.8993289,19.7193878 84.1275168,18.9566327 C83.3557047,18.1938776 82.2483221,17.8290816 80.7718121,17.8290816 L74.5637584,17.8290816 L74.5637584,25.8877551 L80.738255,25.8877551 C81.6442953,25.8877551 82.3825503,25.755102 82.9530201,25.4897959 C83.5234899,25.2244898 83.9932886,24.8928571 84.3288591,24.5280612 C84.6644295,24.130102 84.9328859,23.6989796 85.0671141,23.2015306 C85.2013423,22.7372449 85.2684564,22.2729592 85.2684564,21.875 Z" id="Shape" fill="#55585A"></path>
            <path d="M106.966,27.5041051 C106.966,28.0952381 106.728,28.4893268 106.252,28.7192118 C105.708,28.9490969 105.096,29.1789819 104.45,29.3431856 C103.804,29.5073892 103.158,29.6387521 102.444,29.7372742 C101.764,29.8357964 101.084,29.9014778 100.404,29.9343186 C99.724,29.9671593 99.112,30 98.5,30 C96.834,30 95.44,29.8357964 94.352,29.5073892 C93.264,29.1789819 92.38,28.7520525 91.734,28.1937603 C91.088,27.635468 90.646,27.0114943 90.374,26.2561576 C90.136,25.500821 90,24.7126437 90,23.8916256 C90,23.0377668 90.136,22.2167488 90.442,21.4285714 C90.748,20.6403941 91.19,19.9507389 91.87,19.3267652 C92.516,18.7356322 93.366,18.2430213 94.42,17.8817734 C95.474,17.5205255 96.766,17.3234811 98.262,17.3234811 L102.512,17.3234811 L102.512,16.6995074 C102.512,16.2397373 102.444,15.8128079 102.376,15.4187192 C102.274,15.0246305 102.07,14.6962233 101.798,14.4006568 C101.492,14.1050903 101.118,13.8752053 100.608,13.7110016 C100.098,13.546798 99.452,13.4811166 98.636,13.4811166 C97.786,13.4811166 96.834,13.546798 95.848,13.7110016 C94.828,13.8423645 94.012,14.0394089 93.4,14.2364532 C93.128,14.3021346 92.924,14.3349754 92.788,14.2692939 C92.652,14.2036125 92.584,14.0722496 92.516,13.8752053 L91.972,11.8062397 C91.87,11.4121511 91.972,11.1494253 92.312,11.0509031 C93.366,10.6568144 94.522,10.3940887 95.814,10.2298851 C97.072,10.0656814 98.262,10 99.384,10 C102.002,10 103.94,10.5582923 105.164,11.6748768 C106.388,12.7914614 107,14.4334975 107,16.5681445 L107,27.5041051 L106.966,27.5041051 Z M102.478,20.6075534 L98.84,20.6075534 C98.398,20.6075534 97.956,20.6403941 97.446,20.6732348 C96.97,20.7060755 96.494,20.8702791 96.052,21.0673235 C95.61,21.2972085 95.236,21.592775 94.964,22.0197044 C94.658,22.4466338 94.522,23.0049261 94.522,23.727422 C94.522,24.7783251 94.896,25.500821 95.61,25.9277504 C96.358,26.3546798 97.31,26.5517241 98.534,26.5517241 C98.704,26.5517241 98.942,26.5517241 99.282,26.5188834 C99.588,26.5188834 99.928,26.4860427 100.302,26.4203612 C100.642,26.3546798 101.016,26.3218391 101.424,26.2233169 C101.832,26.1576355 102.172,26.0591133 102.512,25.9277504 L102.512,20.6075534 L102.478,20.6075534 Z" id="Shape" fill="#55585A"></path>
            <path d="M117.319444,13.6333333 C117.049603,13.6333333 116.644841,13.6333333 116.138889,13.6666667 C115.632937,13.6666667 115.025794,13.7333333 114.35119,13.8666667 L114.35119,29.2666667 C114.35119,29.5333333 114.31746,29.7 114.21627,29.8 C114.115079,29.8666667 113.912698,29.9 113.642857,29.9 L110.708333,29.9 C110.472222,29.9 110.269841,29.8666667 110.168651,29.8 C110.06746,29.7333333 110,29.5666667 110,29.2666667 L110,13.3666667 C110,12.4666667 110.168651,11.7666667 110.472222,11.3 C110.809524,10.8 111.484127,10.4666667 112.496032,10.3 C112.732143,10.2666667 113.069444,10.2333333 113.507937,10.2 C113.946429,10.1666667 114.384921,10.1 114.857143,10.1 C115.329365,10.0666667 115.801587,10.0666667 116.240079,10.0333333 C116.678571,10 117.083333,10 117.386905,10 C119.039683,10 120.490079,10.1666667 121.670635,10.5333333 C122.884921,10.8666667 123.896825,11.4333333 124.672619,12.2 C125.448413,12.9666667 126.055556,13.9333333 126.426587,15.1666667 C126.797619,16.3666667 127,17.8333333 127,19.5666667 L127,29.3666667 C127,29.6333333 126.96627,29.8 126.865079,29.9 C126.763889,29.9666667 126.595238,30 126.291667,30 L123.357143,30 C123.121032,30 122.918651,29.9666667 122.81746,29.9 C122.71627,29.8333333 122.64881,29.6666667 122.64881,29.3666667 L122.64881,19.4666667 C122.64881,18.5 122.547619,17.6666667 122.412698,16.9333333 C122.244048,16.2 121.974206,15.6333333 121.569444,15.1666667 C121.164683,14.7 120.625,14.3333333 119.950397,14.1 C119.242063,13.7666667 118.365079,13.6333333 117.319444,13.6333333" id="Shape" fill="#55585A"></path>
            <path d="M137.578858,26.2684124 C138.402845,26.2684124 139.226833,26.1702128 140.016488,25.9738134 C140.840476,25.7774141 141.492799,25.5482815 142.042125,25.3191489 C142.316787,25.188216 142.522784,25.1554828 142.625783,25.2209493 C142.728781,25.2864157 142.831779,25.3846154 142.900445,25.5810147 L143.861764,27.7086743 C144.102094,28.101473 144.033428,28.396072 143.621434,28.6252046 C142.59145,29.1816694 141.458467,29.5417349 140.222485,29.7381342 C139.020836,29.9345336 137.887853,30 136.823535,30 C133.973911,30 131.776611,29.1816694 130.265966,27.512275 C128.755322,25.8428805 128,23.3878887 128,20.1472995 C128,18.608838 128.205997,17.2340426 128.652324,15.9574468 C129.09865,14.7135843 129.716641,13.6333879 130.506296,12.7495908 C131.295951,11.8657938 132.291603,11.1783961 133.424586,10.7201309 C134.557569,10.2291326 135.827884,10 137.269862,10 C138.299847,10 139.329832,10.0981997 140.325483,10.294599 C141.321135,10.4909984 142.248121,10.8183306 143.106442,11.2765957 C143.346772,11.4075286 143.484103,11.5057283 143.518436,11.6366612 C143.552769,11.7675941 143.518436,11.9312602 143.415437,12.193126 L142.454118,14.3535188 C142.35112,14.5499182 142.248121,14.6808511 142.145123,14.7135843 C142.042125,14.7790507 141.836128,14.7135843 141.527132,14.6153846 C140.909141,14.386252 140.291151,14.2225859 139.604494,14.0589198 C138.95217,13.8952537 138.231181,13.8297872 137.510192,13.8297872 C136.651871,13.8297872 135.896549,13.9934534 135.278558,14.3535188 C134.660568,14.7135843 134.145575,15.1718494 133.733581,15.7610475 C133.321588,16.3502455 133.046925,17.00491 132.875261,17.7905074 C132.703597,18.5433715 132.600598,19.3617021 132.600598,20.1800327 C132.600598,21.0310966 132.669264,21.8166939 132.840928,22.5695581 C132.978259,23.3224223 133.252922,23.9770867 133.630583,24.5335516 C134.008244,25.0900164 134.488904,25.5155483 135.141227,25.8428805 C135.759218,26.1374795 136.583206,26.2684124 137.578858,26.2684124" id="Shape" fill="#55585A"></path>
            <path d="M162,19.9346405 C162,23.1699346 161.23475,25.6535948 159.704251,27.3856209 C158.173752,29.1176471 155.911275,30 152.883549,30 C149.889094,30 147.659889,29.1503268 146.195933,27.4509804 C144.731978,25.751634 144,23.3006536 144,20.0326797 C144,18.4313725 144.232902,16.9934641 144.665434,15.7843137 C145.097967,14.5424837 145.730129,13.496732 146.528651,12.6470588 C147.327172,11.7973856 148.25878,11.1437908 149.356747,10.6862745 C150.454713,10.2287582 151.685767,10 153.016636,10 C155.944547,10 158.173752,10.8823529 159.704251,12.6470588 C161.23475,14.4444444 162,16.8627451 162,19.9346405 M157.574861,20.0653595 C157.574861,19.1830065 157.508318,18.3660131 157.375231,17.5816993 C157.242144,16.7973856 157.009242,16.1111111 156.676525,15.5228758 C156.343808,14.9346405 155.878004,14.4444444 155.312384,14.1176471 C154.746765,13.7908497 153.981516,13.5947712 153.116451,13.5947712 C152.31793,13.5947712 151.619224,13.7581699 151.053604,14.0849673 C150.454713,14.4117647 149.955638,14.869281 149.556377,15.4248366 C149.157116,15.9803922 148.857671,16.6666667 148.691312,17.4509804 C148.491682,18.2352941 148.425139,19.0849673 148.425139,19.9673203 C148.425139,21.9934641 148.757856,23.5947712 149.42329,24.7385621 C150.088725,25.8823529 151.286506,26.4705882 152.983364,26.4705882 C153.848429,26.4705882 154.580407,26.2745098 155.179298,25.9477124 C155.778189,25.5882353 156.243993,25.130719 156.609982,24.5424837 C156.97597,23.9542484 157.242144,23.2679739 157.375231,22.5163399 C157.508318,21.7320261 157.574861,20.9150327 157.574861,20.0653595" id="Shape" fill="#55585A"></path>
            <path d="M103.96627,59.5324675 C103.96627,60.1168831 103.730159,60.5064935 103.224206,60.7337662 C102.684524,60.961039 102.077381,61.1883117 101.436508,61.3506494 C100.761905,61.512987 100.121032,61.6428571 99.4464286,61.7402597 C98.7718254,61.8376623 98.0972222,61.9025974 97.422619,61.9350649 C96.7480159,61.9675325 96.1071429,62 95.5,62 C93.8134921,62 92.4305556,61.8376623 91.3511905,61.512987 C90.2380952,61.1883117 89.3611111,60.7337662 88.7202381,60.2142857 C88.0793651,59.6623377 87.640873,59.012987 87.3710317,58.2662338 C87.1349206,57.5194805 87,56.7402597 87,55.9285714 C87,55.0519481 87.1686508,54.2402597 87.4384921,53.461039 C87.7083333,52.6818182 88.1805556,51.9675325 88.8551587,51.3831169 C89.5297619,50.7987013 90.3730159,50.3116883 91.4186508,49.9545455 C92.4642857,49.5974026 93.7460317,49.4025974 95.2638889,49.4025974 L99.5138889,49.4025974 L99.5138889,48.7857143 C99.5138889,48.3311688 99.4464286,47.9090909 99.3789683,47.487013 C99.2777778,47.0974026 99.0753968,46.7727273 98.8055556,46.4805195 C98.5019841,46.1883117 98.1309524,45.961039 97.625,45.8311688 C97.0853175,45.6688312 96.4444444,45.5714286 95.6349206,45.5714286 C94.7579365,45.5714286 93.8472222,45.6363636 92.8353175,45.7987013 C91.8234127,45.9285714 91.0138889,46.0909091 90.3730159,46.2857143 C90.1031746,46.3506494 89.9007937,46.3506494 89.765873,46.3181818 C89.6309524,46.2857143 89.5634921,46.1233766 89.4960317,45.8961039 L88.9563492,43.8181818 C88.8551587,43.4285714 88.9563492,43.1688312 89.2936508,43.0714286 C90.3392857,42.6818182 91.5198413,42.4220779 92.7678571,42.2272727 C94.015873,42.0649351 95.2301587,42 96.343254,42 C98.9742063,42 100.896825,42.5519481 102.144841,43.6883117 C103.359127,44.8246753 104,46.4480519 104,48.5909091 L104,59.5324675 L103.96627,59.5324675 Z M99.5138889,52.6168831 L95.8710317,52.6168831 C95.4325397,52.6168831 94.9940476,52.6493506 94.4880952,52.6818182 C93.9821429,52.7142857 93.5099206,52.8766234 93.0714286,53.0714286 C92.6329365,53.2987013 92.2619048,53.5909091 91.9583333,54.012987 C91.6884921,54.4350649 91.5198413,55.0194805 91.5198413,55.7337662 C91.5198413,56.7727273 91.890873,57.5194805 92.6329365,57.9415584 C93.375,58.3636364 94.3531746,58.5584416 95.5674603,58.5584416 C95.7361111,58.5584416 96.0059524,58.5584416 96.3095238,58.525974 C96.6130952,58.525974 96.984127,58.4935065 97.3214286,58.4285714 C97.6924603,58.3961039 98.0297619,58.3311688 98.4345238,58.2337662 C98.8392857,58.1688312 99.2103175,58.0714286 99.5138889,57.9415584 L99.5138889,52.6168831 Z" id="Shape" fill="#9DA0A1"></path>
            <path d="M132,59.5324675 C132,60.1168831 131.763889,60.5064935 131.257937,60.7337662 C130.718254,60.961039 130.111111,61.1883117 129.470238,61.3506494 C128.829365,61.512987 128.154762,61.6428571 127.480159,61.7402597 C126.805556,61.8376623 126.130952,61.9025974 125.456349,61.9350649 C124.781746,61.9675325 124.140873,62 123.53373,62 C121.847222,62 120.464286,61.8376623 119.384921,61.512987 C118.271825,61.1883117 117.394841,60.7337662 116.753968,60.2142857 C116.113095,59.6623377 115.674603,59.012987 115.404762,58.2662338 C115.134921,57.5194805 115,56.7402597 115,55.9285714 C115,55.0519481 115.168651,54.2402597 115.438492,53.461039 C115.742063,52.6818182 116.180556,51.9675325 116.855159,51.3831169 C117.529762,50.7987013 118.373016,50.3116883 119.418651,49.9545455 C120.464286,49.5974026 121.746032,49.4025974 123.263889,49.4025974 L127.513889,49.4025974 L127.513889,48.7857143 C127.513889,48.3311688 127.480159,47.9090909 127.345238,47.487013 C127.244048,47.0974026 127.041667,46.7727273 126.771825,46.4805195 C126.468254,46.1883117 126.063492,45.961039 125.55754,45.8311688 C125.051587,45.6688312 124.376984,45.5714286 123.60119,45.5714286 C122.724206,45.5714286 121.813492,45.6363636 120.801587,45.7987013 C119.789683,45.9285714 118.980159,46.0909091 118.339286,46.2857143 C118.069444,46.3506494 117.867063,46.3506494 117.732143,46.3181818 C117.597222,46.2857143 117.496032,46.1233766 117.462302,45.8961039 L116.922619,43.8181818 C116.821429,43.4285714 116.922619,43.1688312 117.259921,43.0714286 C118.339286,42.6818182 119.486111,42.4220779 120.767857,42.2272727 C122.049603,42.0649351 123.230159,42 124.343254,42 C126.974206,42 128.896825,42.5519481 130.111111,43.6883117 C131.325397,44.8246753 131.96627,46.4480519 131.96627,48.5909091 L131.96627,59.5324675 L132,59.5324675 Z M127.513889,52.6168831 L123.871032,52.6168831 C123.43254,52.6168831 122.960317,52.6493506 122.488095,52.6818182 C121.982143,52.7142857 121.543651,52.8766234 121.071429,53.0714286 C120.632937,53.2987013 120.261905,53.5909091 119.958333,54.012987 C119.654762,54.4350649 119.519841,55.0194805 119.519841,55.7337662 C119.519841,56.7727273 119.890873,57.5194805 120.632937,57.9415584 C121.375,58.3636364 122.319444,58.5584416 123.56746,58.5584416 C123.736111,58.5584416 123.972222,58.5584416 124.309524,58.525974 C124.613095,58.525974 124.950397,58.4935065 125.321429,58.4285714 C125.69246,58.3961039 126.029762,58.3311688 126.434524,58.2337662 C126.839286,58.1688312 127.176587,58.0714286 127.513889,57.9415584 L127.513889,52.6168831 Z" id="Shape" fill="#9DA0A1"></path>
            <path d="M162.291429,42 C165.24,42 167.434286,42.7142857 168.874286,44.1428571 C170.28,45.5714286 171,47.5519481 171,50.0519481 C171,50.6688312 170.931429,51.2207792 170.76,51.6428571 C170.622857,52.0324675 170.382857,52.3571429 170.108571,52.6168831 C169.834286,52.8766234 169.491429,53.038961 169.114286,53.1363636 C168.737143,53.2337662 168.325714,53.2987013 167.88,53.2987013 L157.662857,53.2987013 C157.697143,54.2727273 157.834286,55.0519481 158.108571,55.7012987 C158.382857,56.3506494 158.794286,56.8701299 159.274286,57.2597403 C159.754286,57.6493506 160.337143,57.9415584 160.954286,58.1038961 C161.605714,58.2662338 162.325714,58.3636364 163.045714,58.3636364 C163.868571,58.3636364 164.691429,58.2662338 165.48,58.0714286 C166.268571,57.8766234 166.954286,57.6493506 167.537143,57.3571429 C167.948571,57.1948052 168.222857,57.2597403 168.394286,57.5844156 L169.422857,59.6623377 C169.594286,60.0519481 169.491429,60.3441558 169.148571,60.5064935 C168.154286,61.0584416 167.125714,61.4480519 165.925714,61.6753247 C164.76,61.9025974 163.662857,62 162.6,62 C159.48,62 157.114286,61.2207792 155.468571,59.6298701 C153.822857,58.0714286 153,55.538961 153,52.1298701 C153,50.5064935 153.24,49.0779221 153.685714,47.8441558 C154.131429,46.5779221 154.782857,45.5064935 155.571429,44.6623377 C156.394286,43.7857143 157.354286,43.1363636 158.485714,42.7142857 C159.685714,42.2272727 160.954286,42 162.291429,42 M162.36,45.538961 C161.674286,45.538961 161.057143,45.6688312 160.508571,45.9285714 C159.96,46.1883117 159.48,46.5454545 159.137143,46.9675325 C158.76,47.4220779 158.451429,47.9090909 158.211429,48.461039 C157.971429,49.012987 157.834286,49.5974026 157.834286,50.2142857 L166.714286,50.2142857 C166.714286,49.5649351 166.645714,48.9480519 166.508571,48.3961039 C166.371429,47.8441558 166.165714,47.3571429 165.822857,46.9350649 C165.514286,46.512987 165.068571,46.1558442 164.52,45.9285714 C163.937143,45.6688312 163.217143,45.538961 162.36,45.538961" id="Shape" fill="#9DA0A1"></path>
            <path d="M207,59.5324675 C207,60.1168831 206.763419,60.5064935 206.256461,60.7337662 C205.715706,60.961039 205.107356,61.1883117 204.465209,61.3506494 C203.789264,61.512987 203.147117,61.6428571 202.471173,61.7402597 C201.795229,61.8376623 201.085487,61.9025974 200.44334,61.9350649 C199.767396,61.9675325 199.125249,62 198.516899,62 C196.860835,62 195.475149,61.8376623 194.359841,61.512987 C193.27833,61.1883117 192.399602,60.7337662 191.723658,60.2142857 C191.081511,59.6623377 190.642147,59.012987 190.371769,58.2662338 C190.135189,57.5194805 190,56.7402597 190,55.9285714 C190,55.0519481 190.135189,54.2402597 190.439364,53.461039 C190.709742,52.6818182 191.2167,51.9675325 191.858847,51.3831169 C192.500994,50.7987013 193.379722,50.3116883 194.427435,49.9545455 C195.475149,49.5974026 196.759443,49.4025974 198.280318,49.4025974 L202.538767,49.4025974 L202.538767,48.7857143 C202.538767,48.3311688 202.50497,47.9090909 202.369781,47.487013 C202.26839,47.0974026 202.065606,46.7727273 201.795229,46.4805195 C201.491054,46.1883117 201.119284,45.961039 200.612326,45.8311688 C200.105368,45.6688312 199.463221,45.5714286 198.652087,45.5714286 C197.807157,45.5714286 196.860835,45.6363636 195.813121,45.7987013 C194.799205,45.9285714 193.988072,46.0909091 193.345924,46.2857143 C193.075547,46.3506494 192.872763,46.3506494 192.737575,46.3181818 C192.602386,46.2857143 192.500994,46.1233766 192.467197,45.8961039 L191.926441,43.8181818 C191.82505,43.4285714 191.926441,43.1688312 192.264414,43.0714286 C193.312127,42.6818182 194.49503,42.4220779 195.745527,42.2272727 C197.029821,42.0649351 198.212724,42 199.328032,42 C201.964215,42 203.890656,42.5519481 205.141153,43.6883117 C206.357853,44.8246753 206.966203,46.4480519 206.966203,48.5909091 L206.966203,59.5324675 L207,59.5324675 Z M202.50497,52.6168831 L198.854871,52.6168831 C198.415507,52.6168831 197.976143,52.6493506 197.469185,52.6818182 C196.962227,52.7142857 196.489066,52.8766234 196.049702,53.0714286 C195.610338,53.2987013 195.238569,53.5909091 194.934394,54.012987 C194.664016,54.4350649 194.49503,55.0194805 194.49503,55.7337662 C194.49503,56.7727273 194.866799,57.5194805 195.610338,57.9415584 C196.353877,58.3636364 197.333996,58.5584416 198.550696,58.5584416 C198.753479,58.5584416 198.956262,58.5584416 199.294235,58.525974 C199.632207,58.525974 199.936382,58.4935065 200.308151,58.4285714 C200.67992,58.3961039 201.05169,58.3311688 201.423459,58.2337662 C201.829026,58.1688312 202.200795,58.0714286 202.50497,57.9415584 L202.50497,52.6168831 Z" id="Shape" fill="#9DA0A1"></path>
            <path d="M87.8666667,36.1977186 C87.7666667,36.0659062 87.5666667,36 87.2,36 L76.6666667,36 C75.4,36 74.3333333,36.1977186 73.5,36.5602028 C72.6333333,36.9226869 71.9666667,37.4169835 71.4333333,38.0430925 C70.9,38.6692015 70.5333333,39.3612167 70.3333333,40.1850444 C70.1333333,40.9759189 70,41.7997465 70,42.6894804 L70,61.2091255 C70,61.5386565 70.0666667,61.7363752 70.2333333,61.8352345 C70.4,61.9340938 70.6,62 70.8666667,62 L72.0333333,62 C72.8333333,61.9340938 74.5333333,61.5386565 74.5333333,59.1330798 L74.5333333,50.5982256 L85.7666667,50.5982256 C86.1,50.5982256 86.3,50.5323194 86.4,50.3675539 C86.5,50.2357414 86.5333333,50.0050697 86.5333333,49.7414449 L86.5333333,47.6324461 C86.5333333,47.269962 86.5,47.0722433 86.4,46.9404309 C86.3333333,46.8415716 86.1333333,46.7427123 85.7666667,46.7427123 L74.5666667,46.7427123 L74.5666667,42.4258555 C74.5666667,41.634981 74.7666667,41.0418251 75.1666667,40.6134347 C75.5333333,40.1850444 76.2,39.9873257 77.1666667,39.9873257 L87.2,39.9873257 C87.5333333,39.9873257 87.7333333,39.9214195 87.8333333,39.7896071 C87.9333333,39.6907478 88,39.460076 88,39.130545 L88,36.8567807 C88,36.5602028 87.9333333,36.3295311 87.8666667,36.1977186" id="Shape" fill="#9DA0A1"></path>
            <path d="M151.51856,48.4292566 C151.177732,47.1870504 150.66649,46.1127098 149.950752,45.206235 C149.235013,44.2997602 148.34886,43.5947242 147.224127,43.0911271 C146.099395,42.5539568 144.804248,42.3189448 143.270522,42.3189448 C142.554783,42.3189448 141.804962,42.3860911 140.918809,42.4868106 C140.032656,42.58753 139.214669,42.7889688 138.464847,42.9904077 L138.430764,35.6714628 C138.430764,35.3693046 138.396682,35.1678657 138.294433,35.1007194 C138.192185,35 137.987688,35 137.715025,35 L136.522127,35 C135.670057,35.0671463 134.068166,35.5035971 134,37.853717 L134,60.7505995 C134,60.9856115 134.034083,61.1534772 134.102248,61.3213429 C134.170414,61.4556355 134.340828,61.5563549 134.545325,61.6570743 C135.70414,62.1942446 136.965204,62.529976 138.328516,62.6978417 C139.691828,62.8992806 141.021057,63 142.350287,63 C144.020344,63 145.485904,62.7314149 146.712885,62.2278177 C147.905783,61.6906475 148.928267,60.9520384 149.712172,60.0119904 C150.496076,59.0719424 151.075484,57.9640288 151.450395,56.6546763 C151.825306,55.3788969 151.99572,53.9688249 151.99572,52.4580336 C152.029803,51.0143885 151.859389,49.6714628 151.51856,48.4292566 M147.053713,55.7146283 C146.781051,56.5539568 146.440223,57.2254197 145.997146,57.7625899 C145.519987,58.2997602 144.974662,58.6690647 144.327089,58.9040767 C143.679516,59.1390887 142.929694,59.2733813 142.14579,59.2733813 C141.634548,59.2733813 141.021057,59.2398082 140.373484,59.1726619 C139.725911,59.1055156 139.078338,58.971223 138.464847,58.7697842 L138.464847,46.6834532 C139.282834,46.4484412 140.066739,46.2805755 140.81656,46.2134293 C141.566382,46.1127098 142.14579,46.0791367 142.554783,46.0791367 C144.08851,46.0791367 145.281408,46.616307 146.16756,47.7242206 C147.053713,48.7985612 147.462707,50.4436451 147.462707,52.6594724 C147.428624,53.8681055 147.292293,54.9088729 147.053713,55.7146283" id="Shape" fill="#9DA0A1"></path>
            <path d="M179.977982,61.7242206 L179.709814,59.6091127 C179.676293,59.4076739 179.642772,59.2733813 179.54221,59.206235 C179.441647,59.1390887 179.307563,59.1390887 179.106437,59.1390887 C178.938833,59.1726619 178.704186,59.1726619 178.436019,59.206235 C178.167851,59.2398082 177.933205,59.2398082 177.732079,59.2398082 C177.229265,59.2398082 176.894056,59.1390887 176.726451,58.8705036 C176.558847,58.6354916 176.458284,58.1990408 176.458284,57.5275779 L176.458284,35.6378897 C176.458284,35.3693046 176.391242,35.2014388 176.257158,35.1007194 C176.156595,35 175.95547,35 175.687302,35 L174.480549,35 C173.642526,35.0671463 172.067042,35.5035971 172,37.7529976 L172,58.6019185 C172,60.2470024 172.335209,61.3884892 173.005628,62.0263789 C173.676047,62.6978417 174.681674,63 176.089554,63 C176.592368,63 177.162223,62.9664269 177.799121,62.8992806 C178.436019,62.8321343 179.005875,62.6978417 179.508689,62.4964029 C179.776856,62.3621103 179.91094,62.2613909 179.944461,62.1606715 C180.011503,62.1606715 180.011503,61.9928058 179.977982,61.7242206" id="Shape" fill="#9DA0A1"></path>
            <path d="M189.953224,61.7242206 L189.684761,59.6091127 C189.651203,59.4076739 189.617645,59.2733813 189.516972,59.206235 C189.449856,59.1390887 189.282066,59.1390887 189.080719,59.1390887 C188.912929,59.1726619 188.678024,59.1726619 188.409561,59.206235 C188.141097,59.2398082 187.906192,59.2398082 187.704845,59.2398082 C187.201476,59.2398082 186.865897,59.1390887 186.664549,58.8705036 C186.49676,58.6354916 186.429644,58.1990408 186.429644,57.5275779 L186.429644,35.6378897 C186.429644,35.3693046 186.362528,35.2014388 186.261854,35.1007194 C186.161181,35 185.959833,35 185.69137,35 L184.483285,35 C183.644338,35.0671463 182,35.5035971 182,37.8872902 L182,58.6019185 C182,60.2470024 182.335579,61.3884892 182.973179,62.0263789 C183.61078,62.6978417 184.651075,63 186.060507,63 C186.563876,63 187.13436,62.9664269 187.77196,62.8992806 C188.409561,62.8321343 188.980045,62.6978417 189.483414,62.4964029 C189.751877,62.3621103 189.886109,62.2613909 189.919666,62.1606715 C190.02034,62.1606715 190.02034,61.9928058 189.953224,61.7242206" id="Shape" fill="#9DA0A1"></path>
            <path d="M113.949686,61.7242206 L113.681342,59.6091127 C113.647799,59.4076739 113.580713,59.2733813 113.513627,59.206235 C113.412998,59.1390887 113.278826,59.1390887 113.077568,59.1390887 C112.909853,59.1726619 112.675052,59.1726619 112.406709,59.206235 C112.138365,59.2398082 111.903564,59.2398082 111.702306,59.2398082 C111.199161,59.2398082 110.863732,59.1390887 110.696017,58.8705036 C110.494759,58.6354916 110.427673,58.1990408 110.427673,57.5275779 L110.427673,35.6378897 C110.427673,35.3693046 110.39413,35.2014388 110.259958,35.1007194 C110.125786,35 109.958071,35 109.689727,35 L108.48218,35 C107.643606,35.0671463 106,35.5035971 106,37.9208633 L106,58.6019185 C106,60.2470024 106.33543,61.3884892 106.972746,62.0263789 C107.610063,62.6978417 108.649895,63 110.0587,63 C110.561845,63 111.132075,62.9664269 111.769392,62.8992806 C112.406709,62.8321343 112.976939,62.6978417 113.480084,62.4964029 C113.748428,62.3621103 113.8826,62.2613909 113.949686,62.1606715 C114.016771,62.1606715 114.016771,61.9928058 113.949686,61.7242206" id="Shape" fill="#9DA0A1"></path>
        </g>
    </g>
</svg>